<?xml version="1.0" encoding="UTF-8"?>
<svg id="Laag_1" data-name="Laag 1" xmlns="http://www.w3.org/2000/svg" viewBox="0 0 202.72 177.02">
  <defs>
    <style>
      .cls-1 {
        stroke: #000;
        stroke-width: 2px;
      }

      .cls-1, .cls-2 {
        stroke-miterlimit: 10;
      }

      .cls-2 {
        stroke: #fff;
        stroke-width: 4px;
      }
    </style>
  </defs>
  <ellipse class="cls-1" cx="100.96" cy="88.45" rx="80.7" ry="78.12"/>
  <g id="dotL5X.tif">
    <g>
      <path class="cls-2" d="M77.18,90.21v4.02l22.04-6.14c.12,1.63.07,3.27.14,4.9s.22,3.22.3,4.81c.11,2.1-.11,4.09.71,6.12l-7.26,4.21.05,1.73,8.6-2.64,1.58.04,8.28,2.59-.14-1.83-7.25-4.23c.3-.86.61-1.72.68-2.64.25-2.99.16-6.19.29-9.21.05-1.27.27-2.57.15-3.87l22.18,6.14v-4.02l-21.72-11.49c-.04-2.8.06-5.58.12-8.38.04-1.68.51-3.47-.32-5.09-1.37-2.69-5.29-2.64-6.6.06-.88,1.82-.29,5.28-.23,7.36s.06,4.05.07,6.07l-21.67,11.47Z"/>
      <path d="M78.06,89.74l19.92-10.54c.54-.29.88-.85.87-1.46,0-1.69-.02-3.39-.06-5.08-.06-2.08-.65-5.54.23-7.36,1.31-2.7,5.22-2.76,6.6-.06.83,1.62.36,3.41.32,5.09-.05,2.47-.14,4.92-.13,7.39,0,.61.34,1.16.88,1.45l19.21,10.16c1.01.54,1.64,1.59,1.64,2.73h0c0,1.08-1.03,1.87-2.08,1.58l-18.05-4.99c-.99-.27-2,.42-2.07,1.45-.05.62-.11,1.23-.14,1.85-.14,3.27-.02,6.75-.36,9.96-.04.41-.22.78-.36,1.16-.16.42.01.88.39,1.1l6.2,3.62c.26.15.42.42.45.71h0c.05.66-.56,1.14-1.18.95l-6.78-2.12c-.15-.05-.3-.07-.45-.07l-1.08-.03c-.18,0-.35.02-.52.07l-7.21,2.21c-.57.18-1.16-.24-1.17-.84h0c0-.33.16-.65.45-.81l5.69-3.3c.62-.36.9-1.08.74-1.78-.39-1.64-.26-3.28-.35-4.98-.08-1.59-.23-3.22-.3-4.81-.04-.93-.04-1.86-.06-2.8-.02-1.07-1.05-1.83-2.08-1.55l-17.95,5c-1.05.29-2.08-.5-2.08-1.58v-.87c0-.61.34-1.17.87-1.45Z"/>
    </g>
  </g>
</svg>